<svg xmlns="http://www.w3.org/2000/svg" xmlns:xlink="http://www.w3.org/1999/xlink" viewBox="0 0 277.65 261.83"><defs><style>.cls-1,.cls-2,.cls-3{fill:none;stroke-miterlimit:10;}.cls-1{stroke-width:27px;stroke:url(#Degradado_sin_nombre_32);}.cls-2,.cls-3{stroke-width:11px;}.cls-2{stroke:url(#Degradado_sin_nombre_32-2);}.cls-3{stroke:url(#Degradado_sin_nombre_32-3);}</style><linearGradient id="Degradado_sin_nombre_32" y1="128.91" x2="277.65" y2="128.91" gradientUnits="userSpaceOnUse"><stop offset="0" stop-color="#00dbde"/><stop offset="0.09" stop-color="#09d3df"/><stop offset="0.23" stop-color="#23bde3"/><stop offset="0.41" stop-color="#4d98e8"/><stop offset="0.62" stop-color="#8666f0"/><stop offset="0.86" stop-color="#cf27f9"/><stop offset="0.99" stop-color="#fc00ff"/></linearGradient><linearGradient id="Degradado_sin_nombre_32-2" x1="158.5" y1="243.83" x2="194.5" y2="243.83" xlink:href="#Degradado_sin_nombre_32"/><linearGradient id="Degradado_sin_nombre_32-3" x1="164" y1="85.33" x2="200" y2="85.33" xlink:href="#Degradado_sin_nombre_32"/></defs><g id="Capa_2" data-name="Capa 2"><g id="Capa_2-2" data-name="Capa 2"><path class="cls-1" d="M178.65,75.83,141.27,16.77a6.77,6.77,0,0,0-11.86.49l-115,215.93c-2.63,4.94.75,11.06,6.09,11l112.39-.39a7,7,0,0,0,6.29-4.25L191,122.67a6.79,6.79,0,0,1,12.35-.54l59.91,110.66c2.66,4.92-.67,11.06-6,11.08l-39.82.16-30.38.3"/><circle class="cls-2" cx="176.5" cy="243.83" r="12.5"/><circle class="cls-3" cx="182" cy="85.33" r="12.5"/></g></g></svg>